<svg xmlns="http://www.w3.org/2000/svg" viewBox="0 0 256 144" role="img" aria-label="Gavl logo">
  <defs>
    <linearGradient id="tile" x1="0" y1="0" x2="0" y2="1">
      <stop offset="0" stop-color="#141821"/>
      <stop offset="1" stop-color="#07080b"/>
    </linearGradient>
  </defs>
  <!-- dark rounded tile so the white-favicon gavel is visible on any README background -->
  <rect x="2" y="2" width="252" height="140" rx="28" fill="url(#tile)" stroke="#e2b252" stroke-opacity="0.4" stroke-width="2"/>
  <!-- the app's gavel mark (web/public/gavel.svg), re-skinned in the gold accent and centred -->
  <g transform="translate(41.6,24) scale(0.9)" fill="#e2b252">
    <path transform="translate(192,0) scale(-1,1)" d="m182.7 80.8c-0.3 0-0.2 0 0 0-5.3-4.4-12.6-6.1-18.9-7.8-11.5-3-23.4-5.1-35-7.2-9.8-1.8-28.3-4.9-37.5-7.8-7.4-2-9.3-4-12.3-5.5-1.6-0.7-2.5-0.9-4.3-0.7-1.8-2.4-4.2-3.5-6.6-2.3l0.8-3.5c4.7-0.5 6-6.5 1.7-8.7-1-0.7-2.1-1-2.3-2-0.3-1.5 0.1-2.7 1.1-3 1.2-0.1 1.9-1 2.2-2.2 3-0.3 5.5-1.6 6.5-5.6 0.9-3.5-0.4-6.1-3.1-7.8 0.9-2.9-2.3-4.7-5.7-6.1-6.7-2.8-19.2-6.1-30.6-7.6-6.1-0.7-10.7-1.6-12.5 1.8h-0.2c-4.4-0.2-6.7 3.7-6.4 7.8 0.2 2.5 1.8 3.8 3.1 4.9-0.5 2.5 1.7 3.2 1.3 4.6-0.2 0.8-0.8 1.7-1.6 2.4-1.4 0.1-2.8-0.1-4.1 0.5-2 0.9-3.2 3.9-1.8 6.3l1.3 2.2-6.7 27c-3.4 0-5.7 4.5-3.2 7.3 1.5 1.8 3.5 1.5 3.4 3.5 0 3.6-2.8 1.1-3.4 4.2-3.8 0.3-5.5 2.8-6 6.1-0.3 3.1 1.1 5 3.4 7.2-0.7 2.6 2 4.8 4.6 5.9 6.1 2.7 15 5.2 21.7 6.8 3.3 0.6 11.7 3 16.8 3.4 1.9 0 4-0.6 4.2-2.3l2.5-0.5c3-0.5 4.9-3.6 4.9-7.6 0-2.1-1.4-4.2-3.4-5.7 0.9-1.5-0.2-2.8-1.5-4.5-0.2-1.4 0.5-2.8 1.5-3.3h2.5c3.9 0 6.2-4.5 3.5-7.4l-1-0.8 0.9-3.7c1.4 2.2 4 3 7.1 1.5 2.8 1.9 3.8 1.3 10 1.4 7.5 0 21 3.8 28.7 5.8 12.7 3.5 30 8.6 45.8 13 5.5 1.3 17.8 6.2 24.3 5.2 1.6 1 3.2 1.9 4.6 2 4.6 0 7.4-3.7 7.4-9.2 0-4.1-3-8-7.7-8z" />
  </g>
</svg>
